<svg xmlns="http://www.w3.org/2000/svg" viewBox="0 0 52.9329 33">
  <path d="M18.9107 1.62479C19.0814 0.997942 18.8365 0.446759 18.2289 0.325245C17.4427 0.168004 16.1132 0 14.0214 0C11.9169 0 10.4605 0.17004 9.56133 0.328092C8.87123 0.449391 8.30563 1.01295 8.13067 1.65516L0.0527404 31.303C-0.105883 31.8852 0.0941656 32.4085 0.641239 32.5551C1.41699 32.763 2.7922 33 5.0301 33C7.26374 33 8.7328 32.7639 9.59275 32.5563C10.1997 32.4098 10.6615 31.9015 10.815 31.3379L18.9107 1.62479Z" fill="#D93F0C"/>
  <path d="M52.8799 1.62479C53.0506 0.997942 52.8057 0.446759 52.1981 0.325245C51.4118 0.168004 50.0824 0 47.9905 0C45.8861 0 44.4297 0.17004 43.5305 0.328092C42.8404 0.449391 42.2748 1.01295 42.0998 1.65516L34.0219 31.303C33.8633 31.8852 34.0633 32.4085 34.6104 32.5551C35.3861 32.763 36.7614 33 38.9992 33C41.2329 33 42.702 32.7639 43.5619 32.5563C44.1688 32.4098 44.6306 31.9015 44.7841 31.3379L52.8799 1.62479Z" fill="#D93F0C"/>
  <path d="M36.0602 1.62479C36.2309 0.997942 35.986 0.446759 35.3784 0.325245C34.5922 0.168004 33.2627 0 31.1709 0C29.0664 0 27.61 0.17004 26.7108 0.328092C26.0207 0.449391 25.4551 1.01295 25.2802 1.65516L17.2023 31.303C17.0436 31.8852 17.2436 32.4085 17.7907 32.5551C18.5665 32.763 19.9417 33 22.1796 33C24.4132 33 25.8823 32.7639 26.7422 32.5563C27.3492 32.4098 27.811 31.9015 27.9645 31.3379L36.0602 1.62479Z" fill="#D93F0C"/>
  <path d="M8.77272 1.62479C8.60196 0.997942 8.84692 0.446759 9.45457 0.325245C10.2407 0.168004 11.5702 0 13.6621 0C15.7665 0 17.2229 0.17004 18.1221 0.328092C18.8122 0.449391 19.3778 1.01295 19.5527 1.65516L27.6307 31.303C27.7893 31.8852 27.5893 32.4085 27.0422 32.5551C26.2664 32.763 24.8913 33 22.6533 33C20.4197 33 18.9506 32.7639 18.0907 32.5563C17.4838 32.4098 17.022 31.9015 16.8684 31.3379L8.77272 1.62479Z" fill="#F35826"/>
  <path d="M25.5924 1.62479C25.4216 0.997942 25.6666 0.446759 26.2743 0.325245C27.0604 0.168004 28.3899 0 30.4817 0C32.5862 0 34.0426 0.17004 34.9418 0.328092C35.6319 0.449391 36.1975 1.01295 36.3724 1.65516L44.4504 31.303C44.609 31.8852 44.4089 32.4085 43.8619 32.5551C43.0861 32.763 41.7109 33 39.473 33C37.2394 33 35.7703 32.7639 34.9103 32.5563C34.3034 32.4098 33.8417 31.9015 33.6881 31.3379L25.5924 1.62479Z" fill="#F35826"/>
</svg>
